<svg width="81" height="80" viewBox="0 0 81 80" fill="none" xmlns="http://www.w3.org/2000/svg">
<path d="M1.18334 39.1669L80.176 39.1669C79.8837 58.8575 62.3539 74.8081 40.6797 74.8081C19.0054 74.8081 1.47561 58.8575 1.18334 39.1669Z" stroke="#FFFFFF"/>
<path d="M69.8337 34.0001C69.8337 18.0759 56.9246 5.16679 41.0003 5.16679C25.0761 5.16679 12.167 18.0759 12.167 34.0001C12.167 49.9244 25.0761 62.8335 41.0003 62.8335C56.9246 62.8335 69.8337 49.9244 69.8337 34.0001Z" stroke="#FFFFFF"/>
<path d="M54.5 34C54.5 26.5441 48.4559 20.5 41 20.5C33.5442 20.5 27.5 26.5441 27.5 34C27.5 41.4558 33.5442 47.5 41 47.5C48.4559 47.5 54.5 41.4558 54.5 34Z" stroke="#FFFFFF"/>
</svg>
