<svg width="160" height="150" viewBox="0 0 160 150" fill="none" xmlns="http://www.w3.org/2000/svg">
    <circle cx="80" cy="75" r="35.5" fill="#1D1E1E" stroke="#FFFFFF"/>
    <path d="M82.2383 38.5394C65.4658 18.2652 49.155 6.97976 41.4589 11.8132C31.0924 18.3237 40.2814 51.6138 61.9831 86.1687C83.6847 120.724 109.681 143.458 120.048 136.948C127.794 132.082 124.156 111.628 113 87.4999" stroke="#FFFFFF"/>
    <path d="M77.7613 38.5395C94.5339 18.2652 110.845 6.97978 118.541 11.8132C128.907 18.3237 119.718 51.6138 98.0166 86.1687C76.3149 120.724 50.3186 143.458 39.9521 136.948C32.2052 132.082 35.8438 111.628 46.9996 87.5" stroke="#FFFFFF"/>
    <path d="M50.3915 54.0663C24.2606 57.4428 6 65.1521 6 74.1224C6 86.2051 39.1309 96 80 96C120.869 96 154 86.2051 154 74.1224C154 65.093 135.498 57.3411 109.09 54" stroke="#FFFFFF"/>
</svg>
